<?xml version="1.0" standalone="no"?>
<!DOCTYPE svg PUBLIC "-//W3C//DTD SVG 20010904//EN"
 "http://www.w3.org/TR/2001/REC-SVG-20010904/DTD/svg10.dtd">
<svg version="1.0" xmlns="http://www.w3.org/2000/svg"
 width="476.000000pt" height="450.000000pt" viewBox="0 0 476.000000 450.000000"
 preserveAspectRatio="xMidYMid meet">

<g transform="translate(0.000000,450.000000) scale(0.100000,-0.100000)"
fill="#000000" stroke="none">
<path d="M2238 3549 c-32 -18 -13 -89 23 -89 6 0 9 -17 7 -37 -3 -35 -5 -38
-38 -41 -72 -6 -208 -36 -290 -65 -355 -124 -611 -382 -690 -696 -11 -42 -20
-95 -20 -118 l0 -43 1140 0 1140 0 0 41 c0 56 -35 189 -70 266 -112 247 -345
447 -640 550 -82 29 -218 59 -290 65 -33 3 -35 6 -38 41 -2 20 1 37 7 37 37 0
55 72 22 90 -25 13 -240 13 -263 -1z"/>
<path d="M876 2377 c20 -53 263 -117 574 -152 206 -23 207 -23 213 -45 3 -10
47 -46 98 -79 79 -50 102 -71 145 -133 61 -87 221 -274 319 -374 39 -39 81
-87 95 -107 31 -46 51 -56 195 -107 149 -53 145 -50 316 -166 78 -53 145 -92
149 -87 9 10 143 383 143 398 0 5 -14 31 -32 57 -92 136 -95 313 -9 500 19 42
29 77 26 93 -6 30 -14 28 182 50 308 35 554 100 574 152 4 11 -285 13 -1494
13 -1228 0 -1498 -2 -1494 -13z m1942 -307 c-49 -66 -101 -129 -114 -139 -80
-63 -318 -14 -484 99 -36 25 -108 68 -160 97 l-95 53 420 3 c231 1 443 3 472
5 l51 2 -90 -120z"/>
<path d="M3204 1513 c-32 -146 -77 -270 -149 -413 -25 -49 -45 -103 -45 -118
l0 -29 203 -52 c111 -29 223 -59 250 -66 l47 -14 0 324 0 324 -42 11 c-24 6
-83 22 -133 36 -115 31 -123 30 -131 -3z"/>
</g>
</svg>
